HIERARCHY
ROOT hip
{
  OFFSET 0.00112043 5.09927 -9.65472
  CHANNELS 6 Xposition Yposition Zposition Zrotation Xrotation Yrotation
  JOINT abdomen
  {
    OFFSET 0 -1.186 -1.5018
    CHANNELS 3 Zrotation Xrotation Yrotation
    JOINT abdomen2
    {
      OFFSET 0 9.964 0.2134
      CHANNELS 3 Zrotation Xrotation Yrotation
      JOINT chest
      {
        OFFSET 0 13.134 -3.2573
        CHANNELS 3 Zrotation Xrotation Yrotation
        JOINT neck
        {
          OFFSET 0 20.686 -1.6905
          CHANNELS 3 Zrotation Xrotation Yrotation
          JOINT head
          {
            OFFSET 0 7.238 -0.1237
            CHANNELS 3 Zrotation Xrotation Yrotation
            End Site
            {
              OFFSET 0 0 0
            }
          }
        }
        JOINT lCollar
        {
          OFFSET 1.7069 20.075 5.0056
          CHANNELS 3 Zrotation Xrotation Yrotation
          JOINT lShldr
          {
            OFFSET 13.6458 -0.047 -4.849
            CHANNELS 3 Zrotation Xrotation Yrotation
            JOINT lForeArm
            {
              OFFSET 28.3255 -0.9759 2.2888
              CHANNELS 3 Zrotation Xrotation Yrotation
              JOINT lHand
              {
                OFFSET 22.1583 -0.53 10.8316
                CHANNELS 3 Zrotation Xrotation Yrotation
                JOINT lThumb1
                {
                  OFFSET 0.786 0.112 2.5817
                  CHANNELS 3 Zrotation Xrotation Yrotation
                  JOINT lThumb2
                  {
                    OFFSET 0.3601 -0.878 4.2331
                    CHANNELS 3 Zrotation Xrotation Yrotation
                    JOINT lThumb2_End
                    {
                      OFFSET 1.8127 -1.216 2.2227
                      CHANNELS 3 Zrotation Xrotation Yrotation
                      End Site
                      {
                        OFFSET 0.0181 -0.0122 0.0222
                      }
                    }
                  }
                }
                JOINT lCarpal1
                {
                  OFFSET 0.9571 1.114 1.7695
                  CHANNELS 3 Zrotation Xrotation Yrotation
                  JOINT lIndex1
                  {
                    OFFSET 4.1246 0.487 4.1451
                    CHANNELS 3 Zrotation Xrotation Yrotation
                    JOINT lIndex2
                    {
                      OFFSET 3.4052 -1.454 2.7682
                      CHANNELS 3 Zrotation Xrotation Yrotation
                      JOINT lIndex2_End
                      {
                        OFFSET 1.4531 -1.795 1.2713
                        CHANNELS 3 Zrotation Xrotation Yrotation
                        End Site
                        {
                          OFFSET 0.0145 -0.0179 0.0127
                        }
                      }
                    }
                  }
                  JOINT lMid1
                  {
                    OFFSET 5.6954 0.21 2.1184
                    CHANNELS 3 Zrotation Xrotation Yrotation
                    JOINT lMid2
                    {
                      OFFSET 3.9766 -1.54 2.3863
                      CHANNELS 3 Zrotation Xrotation Yrotation
                      JOINT lMid2_End
                      {
                        OFFSET 1.4042 -1.926 1.125
                        CHANNELS 3 Zrotation Xrotation Yrotation
                        End Site
                        {
                          OFFSET 0.014 -0.0193 0.0113
                        }
                      }
                    }
                  }
                }
                JOINT lCarpal2
                {
                  OFFSET 2.0956 0.66 -0.3894
                  CHANNELS 3 Zrotation Xrotation Yrotation
                  JOINT lRing1
                  {
                    OFFSET 5.0395 -0.09 2.4971
                    CHANNELS 3 Zrotation Xrotation Yrotation
                    JOINT lRing2
                    {
                      OFFSET 3.7921 -1.552 1.4806
                      CHANNELS 3 Zrotation Xrotation Yrotation
                      JOINT lRing2_End
                      {
                        OFFSET 1.4655 -1.808 0.9609
                        CHANNELS 3 Zrotation Xrotation Yrotation
                        End Site
                        {
                          OFFSET 0.0147 -0.0181 0.0096
                        }
                      }
                    }
                  }
                  JOINT lPinky1
                  {
                    OFFSET 4.9141 -1.269 0.3591
                    CHANNELS 3 Zrotation Xrotation Yrotation
                    JOINT lPinky2
                    {
                      OFFSET 3.1477 -1.685 0.8462
                      CHANNELS 3 Zrotation Xrotation Yrotation
                      JOINT lPinky2_End
                      {
                        OFFSET 0.8055 -1.585 0.7955
                        CHANNELS 3 Zrotation Xrotation Yrotation
                        End Site
                        {
                          OFFSET 0.0081 -0.0158 0.008
                        }
                      }
                    }
                  }
                }
              }
            }
          }
        }
        JOINT rCollar
        {
          OFFSET -1.7069 20.075 5.0056
          CHANNELS 3 Zrotation Xrotation Yrotation
          JOINT rShldr
          {
            OFFSET -13.6458 -0.047 -4.849
            CHANNELS 3 Zrotation Xrotation Yrotation
            JOINT rForeArm
            {
              OFFSET -28.3255 -0.9759 2.2888
              CHANNELS 3 Zrotation Xrotation Yrotation
              JOINT rHand
              {
                OFFSET -22.1583 -0.53 10.8316
                CHANNELS 3 Zrotation Xrotation Yrotation
                JOINT rThumb1
                {
                  OFFSET -0.786 0.112 2.5817
                  CHANNELS 3 Zrotation Xrotation Yrotation
                  JOINT rThumb2
                  {
                    OFFSET -0.3601 -0.878 4.2331
                    CHANNELS 3 Zrotation Xrotation Yrotation
                    JOINT rThumb2_End
                    {
                      OFFSET -1.8127 -1.216 2.2227
                      CHANNELS 3 Zrotation Xrotation Yrotation
                      End Site
                      {
                        OFFSET -0.0181 -0.0122 0.0222
                      }
                    }
                  }
                }
                JOINT rCarpal1
                {
                  OFFSET -0.9571 1.114 1.7695
                  CHANNELS 3 Zrotation Xrotation Yrotation
                  JOINT rIndex1
                  {
                    OFFSET -4.1246 0.487 4.1451
                    CHANNELS 3 Zrotation Xrotation Yrotation
                    JOINT rIndex2
                    {
                      OFFSET -3.4052 -1.454 2.7682
                      CHANNELS 3 Zrotation Xrotation Yrotation
                      JOINT rIndex2_End
                      {
                        OFFSET -1.4531 -1.795 1.2713
                        CHANNELS 3 Zrotation Xrotation Yrotation
                        End Site
                        {
                          OFFSET -0.0145 -0.018 0.0127
                        }
                      }
                    }
                  }
                  JOINT rMid1
                  {
                    OFFSET -5.6954 0.21 2.1184
                    CHANNELS 3 Zrotation Xrotation Yrotation
                    JOINT rMid2
                    {
                      OFFSET -3.9766 -1.54 2.3863
                      CHANNELS 3 Zrotation Xrotation Yrotation
                      JOINT rMid2_End
                      {
                        OFFSET -1.4042 -1.926 1.125
                        CHANNELS 3 Zrotation Xrotation Yrotation
                        End Site
                        {
                          OFFSET -0.014 -0.0193 0.0113
                        }
                      }
                    }
                  }
                }
                JOINT rCarpal2
                {
                  OFFSET -2.0956 0.66 -0.3894
                  CHANNELS 3 Zrotation Xrotation Yrotation
                  JOINT rRing1
                  {
                    OFFSET -5.0395 -0.09 2.4971
                    CHANNELS 3 Zrotation Xrotation Yrotation
                    JOINT rRing2
                    {
                      OFFSET -3.7921 -1.552 1.4806
                      CHANNELS 3 Zrotation Xrotation Yrotation
                      JOINT rRing2_End
                      {
                        OFFSET -1.4655 -1.808 0.9609
                        CHANNELS 3 Zrotation Xrotation Yrotation
                        End Site
                        {
                          OFFSET -0.0147 -0.0181 0.0096
                        }
                      }
                    }
                  }
                  JOINT rPinky1
                  {
                    OFFSET -4.9141 -1.269 0.3592
                    CHANNELS 3 Zrotation Xrotation Yrotation
                    JOINT rPinky2
                    {
                      OFFSET -3.1477 -1.685 0.8462
                      CHANNELS 3 Zrotation Xrotation Yrotation
                      JOINT rPinky2_End
                      {
                        OFFSET -0.8055 -1.585 0.7955
                        CHANNELS 3 Zrotation Xrotation Yrotation
                        End Site
                        {
                          OFFSET -0.0081 -0.0158 0.008
                        }
                      }
                    }
                  }
                }
              }
            }
          }
        }
      }
    }
  }
  JOINT lThigh
  {
    OFFSET 8.367 -8.2066 0.5982
    CHANNELS 3 Zrotation Xrotation Yrotation
    JOINT lShin
    {
      OFFSET 2.1923 -43.463 -0.4932
      CHANNELS 3 Zrotation Xrotation Yrotation
      JOINT lFoot
      {
        OFFSET 0.7333 -45.8593 -2.6451
        CHANNELS 3 Zrotation Xrotation Yrotation
        End Site
        {
          OFFSET 2.6618 -4.2699 12.3931
        }
      }
    }
  }
  JOINT rThigh
  {
    OFFSET -8.367 -8.2066 0.5982
    CHANNELS 3 Zrotation Xrotation Yrotation
    JOINT rShin
    {
      OFFSET -2.1923 -43.463 -0.4931
      CHANNELS 3 Zrotation Xrotation Yrotation
      JOINT rFoot
      {
        OFFSET -0.7333 -45.8593 -2.6451
        CHANNELS 3 Zrotation Xrotation Yrotation
        End Site
        {
          OFFSET -2.6618 -4.2699 12.3931
        }
      }
    }
  }
}
MOTION
Frames:	5
Frame Time:	0.0333333
0.205408 -0.487867 69.5477 -180 -85.9956 -180 -0.00288182 0.832752 -0.0889457 -0.0044713 1.66556 -0.177878 -0.00447128 1.66552 -0.177878 1.75898e-006 14.601 -5.71619e-006 -1.46266e-008 -4.02564 4.1356e-008 -0.0365261 -12.6922 -1.01592 -80.0037 0.205768 3.26048 2.55724 -2.79391 -29.0821 -18.9067 0.251477 15.0608 -2.20695e-032 3.97569e-016 3.18055e-015 1.19271e-015 3.97569e-016 -0 -7.95139e-016 1.98785e-016 3.18055e-015 3.97569e-016 3.97569e-016 -0 -0 -1.19271e-015 -0 -1.10348e-032 1.98785e-016 3.18055e-015 7.95139e-016 0 6.36111e-015 -0 -1.19271e-015 -0 -1.10348e-032 1.98785e-016 3.18055e-015 7.95139e-016 0 6.36111e-015 3.97569e-016 3.97569e-016 -0 -0 -1.19271e-015 -0 -1.10348e-032 1.98785e-016 3.18055e-015 7.95139e-016 0 6.36111e-015 -0 -1.19271e-015 -0 -1.10348e-032 1.98785e-016 3.18055e-015 7.95139e-016 0 6.36111e-015 -2.57304 -4.5587 -3.8074 84.662 1.11079 -4.53563 0.792616 1.98609 50.4708 14.5491 2.8058 -7.46612 -1.59028e-015 1.88845e-015 1.59028e-014 -1.44119e-015 -1.49089e-016 -0 -5.96354e-016 -1.39149e-015 -0 -6.20706e-031 2.23633e-015 1.59028e-014 1.49089e-016 2.98177e-015 1.27222e-014 1.2424e-015 -4.72114e-015 -6.36111e-015 -1.2424e-015 -1.49089e-016 -0 1.49089e-016 2.98177e-015 1.27222e-014 1.2424e-015 -4.72114e-015 -6.36111e-015 -1.2424e-015 -1.49089e-016 -0 -6.20706e-031 2.23633e-015 1.59028e-014 1.49089e-016 2.98177e-015 1.27222e-014 1.2424e-015 -4.72114e-015 -6.36111e-015 -1.2424e-015 -1.49089e-016 -0 1.49089e-016 2.98177e-015 1.27222e-014 1.2424e-015 -4.72114e-015 -6.36111e-015 -1.2424e-015 -1.49089e-016 -0 92.675 -57.9758 129.48 -127.118 57.5218 131.207 17.6592 22.6463 -16.9937 -99.948 -54.0487 -137.313 145.052 54.5568 -146.531 -17.514 25.1675 16.8581 
0.206643 -0.495776 69.5462 -180 -85.9956 -180 -0.0028701 0.822664 -0.0889662 -0.00446319 1.64533 -0.177919 -0.00446315 1.64534 -0.177919 5.87872e-006 15.203 -1.22809e-005 -1.3039e-007 -3.54961 -2.18678e-008 -0.457407 -12.8639 -1.32497 -79.6239 0.151344 3.14508 2.64525 -2.89517 -28.7887 -18.9067 0.251449 15.0608 5.96606e-007 -5.51553e-007 -1.29318e-006 1.59028e-015 -1.78906e-015 -3.18055e-015 -3.97569e-016 -1.19271e-015 -6.36111e-015 -9.93129e-032 5.96354e-016 9.54166e-015 5.96606e-007 -5.51553e-007 -1.29318e-006 1.59028e-015 -1.78906e-015 -6.36111e-015 -1.10348e-031 -9.93923e-016 -6.36111e-015 5.96606e-007 -5.51553e-007 -1.29318e-006 1.59028e-015 -1.78906e-015 -6.36111e-015 -1.10348e-031 -9.93923e-016 -6.36111e-015 -9.93129e-032 5.96354e-016 9.54166e-015 5.96606e-007 -5.51553e-007 -1.29318e-006 1.59028e-015 -1.78906e-015 -6.36111e-015 -1.10348e-031 -9.93923e-016 -6.36111e-015 5.96606e-007 -5.51553e-007 -1.29318e-006 1.59028e-015 -1.78906e-015 -6.36111e-015 -1.10348e-031 -9.93923e-016 -6.36111e-015 -2.46246 -4.79613 -3.65653 84.5394 1.08793 -4.38298 0.772353 1.92718 50.0969 14.5491 2.8058 -7.46611 3.24111e-006 9.49421e-007 1.61443e-006 -1.71225e-007 2.78553e-006 -1.91004e-006 2.98177e-015 5.71506e-016 6.36111e-015 1.2424e-015 1.78906e-015 -3.18055e-015 3.24111e-006 9.49421e-007 1.61443e-006 -1.71225e-007 2.78553e-006 -1.91004e-006 5.01931e-015 -2.16178e-015 -6.36111e-015 3.24111e-006 9.49421e-007 1.61443e-006 -1.71225e-007 2.78553e-006 -1.91004e-006 5.01931e-015 -2.16178e-015 -6.36111e-015 1.2424e-015 1.78906e-015 -3.18055e-015 3.24111e-006 9.49421e-007 1.61443e-006 -1.71225e-007 2.78553e-006 -1.91004e-006 5.01931e-015 -2.16178e-015 -6.36111e-015 3.24111e-006 9.49421e-007 1.61443e-006 -1.71225e-007 2.78553e-006 -1.91004e-006 5.01931e-015 -2.16178e-015 -6.36111e-015 92.1911 -57.9928 128.996 -126.479 57.5769 130.657 17.6649 22.5873 -16.9999 -99.7545 -54.0051 -137.079 144.666 54.8068 -146.182 -17.5142 25.0904 16.8672 
0.207916 -0.503729 69.5447 -180 -85.9956 -180 -0.00285803 0.812624 -0.0890008 -0.00445413 1.62526 -0.177988 -0.00445417 1.62526 -0.177988 9.21657e-007 15.805 1.72221e-005 4.64816e-008 -3.07364 9.95843e-008 -0.879483 -13.0336 -1.63547 -79.2442 0.0961445 3.03007 2.73376 -2.99599 -28.4952 -18.9067 0.251468 15.0608 3.97569e-016 5.96354e-016 6.36111e-015 -7.95139e-016 7.95139e-016 6.36111e-015 7.95139e-016 5.96354e-016 -0 7.95139e-016 -1.39149e-015 3.18055e-015 -7.95139e-016 9.93923e-016 6.36111e-015 -1.21382e-031 2.18663e-015 3.18055e-015 -8.82781e-032 1.59028e-015 3.18055e-015 -7.95139e-016 9.93923e-016 6.36111e-015 -1.21382e-031 2.18663e-015 3.18055e-015 -8.82781e-032 1.59028e-015 3.18055e-015 7.95139e-016 -1.39149e-015 3.18055e-015 -7.95139e-016 9.93923e-016 6.36111e-015 -1.21382e-031 2.18663e-015 3.18055e-015 -8.82781e-032 1.59028e-015 3.18055e-015 -7.95139e-016 9.93923e-016 6.36111e-015 -1.21382e-031 2.18663e-015 3.18055e-015 -8.82781e-032 1.59028e-015 3.18055e-015 -2.35122 -5.03353 -3.50512 84.4169 1.06471 -4.23035 0.75173 1.86838 49.723 14.5491 2.80581 -7.46611 -5.2181e-016 -5.2181e-016 -6.36111e-015 -4.135e-006 -1.3086e-006 2.27105e-006 -2.06239e-015 -2.48481e-016 9.54166e-015 -5.2181e-016 -3.47873e-016 -6.36111e-015 -1.59028e-015 1.61513e-015 2.22639e-014 -4.135e-006 -1.3086e-006 2.27105e-006 -7.70291e-016 2.11209e-015 1.59028e-014 -1.59028e-015 1.61513e-015 2.22639e-014 -4.135e-006 -1.3086e-006 2.27105e-006 -7.70291e-016 2.11209e-015 1.59028e-014 -5.2181e-016 -3.47873e-016 -6.36111e-015 -1.59028e-015 1.61513e-015 2.22639e-014 -4.135e-006 -1.3086e-006 2.27105e-006 -7.70291e-016 2.11209e-015 1.59028e-014 -1.59028e-015 1.61513e-015 2.22639e-014 -4.135e-006 -1.3086e-006 2.27105e-006 -7.70291e-016 2.11209e-015 1.59028e-014 91.7081 -58.0078 128.512 -125.837 57.629 130.105 17.6702 22.5287 -17.0059 -99.5617 -53.9605 -136.846 144.275 55.0558 -145.828 -17.5144 25.014 16.8763 
0.209217 -0.511697 69.543 -180 -85.9956 -180 -0.00284521 0.802459 -0.0890282 -0.00444387 1.60495 -0.178043 -0.00444391 1.60494 -0.178043 7.40738e-006 16.4069 -2.55636e-005 -5.27985e-008 -2.59769 1.14846e-007 -1.30276 -13.2005 -1.94749 -78.8647 0.0401887 2.9154 2.82281 -3.09634 -28.2014 -18.9067 0.25147 15.0608 -2.78299e-015 -1.78906e-015 -2.22639e-014 -3.97569e-016 5.96354e-016 -1.59028e-014 -2.38542e-015 1.59028e-015 -1.59028e-014 -7.95139e-016 -1.39149e-015 -9.54166e-015 -7.95139e-016 3.97569e-016 -1.59028e-014 -3.97569e-016 5.96354e-016 -1.59028e-014 -1.59028e-015 1.59028e-015 -1.59028e-014 -7.95139e-016 3.97569e-016 -1.59028e-014 -3.97569e-016 5.96354e-016 -1.59028e-014 -1.59028e-015 1.59028e-015 -1.59028e-014 -7.95139e-016 -1.39149e-015 -9.54166e-015 -7.95139e-016 3.97569e-016 -1.59028e-014 -3.97569e-016 5.96354e-016 -1.59028e-014 -1.59028e-015 1.59028e-015 -1.59028e-014 -7.95139e-016 3.97569e-016 -1.59028e-014 -3.97569e-016 5.96354e-016 -1.59028e-014 -1.59028e-015 1.59028e-015 -1.59028e-014 -2.23931 -5.27001 -3.35325 84.2944 1.0412 -4.0778 0.730738 1.80972 49.3493 14.5491 2.8058 -7.46612 -2.36806e-006 -2.90236e-006 8.18104e-007 -1.58185e-006 1.15224e-006 -2.94369e-006 -2.48481e-017 3.77691e-015 6.36111e-015 8.44835e-016 7.45443e-017 -6.36111e-015 -2.36806e-006 -2.90236e-006 8.18104e-007 -1.58185e-006 1.15224e-006 -2.94369e-006 -1.04362e-015 4.42296e-015 3.18055e-015 -2.36806e-006 -2.90236e-006 8.18104e-007 -1.58185e-006 1.15224e-006 -2.94369e-006 -1.04362e-015 4.42296e-015 3.18055e-015 8.44835e-016 7.45443e-017 -6.36111e-015 -2.36806e-006 -2.90236e-006 8.18104e-007 -1.58185e-006 1.15224e-006 -2.94369e-006 -1.04362e-015 4.42296e-015 3.18055e-015 -2.36806e-006 -2.90236e-006 8.18104e-007 -1.58185e-006 1.15224e-006 -2.94369e-006 -1.04362e-015 4.42296e-015 3.18055e-015 91.2271 -58.0206 128.028 -125.195 57.6777 129.551 17.6753 22.4703 -17.0119 -99.3696 -53.9148 -136.615 143.879 55.3035 -145.469 -17.5147 24.9384 16.8853 
0.210579 -0.519756 69.5412 -180 -85.9956 -180 -0.00283195 0.792404 -0.089074 -0.00443236 1.58484 -0.178134 -0.00443228 1.58481 -0.178134 9.48966e-007 17.009 -1.06464e-005 2.17299e-008 -2.12182 2.0064e-008 -1.72717 -13.3656 -2.26088 -78.4854 -0.01654 2.80113 2.91236 -3.19619 -27.9075 -18.9067 0.251461 15.0608 -1.59028e-015 -1.98785e-015 -0 -0 -1.78906e-015 -0 -3.97569e-016 -3.18055e-015 -0 -1.19271e-015 -1.59028e-015 3.18055e-015 -1.19271e-015 -1.98785e-015 -0 -0 -2.18663e-015 -0 -7.95139e-016 -1.98785e-015 -3.18055e-015 -1.19271e-015 -1.98785e-015 -0 -0 -2.18663e-015 -0 -7.95139e-016 -1.98785e-015 -3.18055e-015 -1.19271e-015 -1.59028e-015 3.18055e-015 -1.19271e-015 -1.98785e-015 -0 -0 -2.18663e-015 -0 -7.95139e-016 -1.98785e-015 -3.18055e-015 -1.19271e-015 -1.98785e-015 -0 -0 -2.18663e-015 -0 -7.95139e-016 -1.98785e-015 -3.18055e-015 -2.12673 -5.50668 -3.20083 84.172 1.01735 -3.9253 0.709323 1.75121 48.9754 14.5491 2.8058 -7.46612 -3.72721e-017 1.76421e-015 6.36111e-015 -6.08778e-016 6.33626e-016 -6.36111e-015 -1.49089e-016 1.963e-015 -0 -3.72721e-017 1.77664e-015 6.36111e-015 2.59662e-015 -1.36664e-016 6.36111e-015 3.60297e-016 -5.96354e-016 -3.18055e-015 1.97542e-015 2.86995e-015 -3.18055e-015 2.59662e-015 -1.36664e-016 6.36111e-015 3.60297e-016 -5.96354e-016 -3.18055e-015 1.97542e-015 2.86995e-015 -3.18055e-015 -3.72721e-017 1.77664e-015 6.36111e-015 2.59662e-015 -1.36664e-016 6.36111e-015 3.60297e-016 -5.96354e-016 -3.18055e-015 1.97542e-015 2.86995e-015 -3.18055e-015 2.59662e-015 -1.36664e-016 6.36111e-015 3.60297e-016 -5.96354e-016 -3.18055e-015 1.97542e-015 2.86995e-015 -3.18055e-015 90.7456 -58.0315 127.545 -124.55 57.7234 128.996 17.6802 22.4124 -17.0179 -99.1782 -53.8683 -136.385 143.478 55.5499 -145.106 -17.515 24.8634 16.8943 
